<?xml version="1.0" standalone="no"?><!DOCTYPE svg PUBLIC "-//W3C//DTD SVG 1.1//EN" "http://www.w3.org/Graphics/SVG/1.1/DTD/svg11.dtd"><svg t="1689072043351" class="icon" viewBox="0 0 1024 1024" version="1.1" xmlns="http://www.w3.org/2000/svg" p-id="2922" xmlns:xlink="http://www.w3.org/1999/xlink" width="200" height="200"><path d="M65.344 679.68a49.024 49.024 0 0 0-0.768 19.072l6.976 44.16c0.384 2.496 0.64 5.056 0.64 7.616v72.64l-2.432 27.52a43.52 43.52 0 0 0 0.128 8.512l0.384 3.712a36.352 36.352 0 0 0 35.52 33.088h20.672a15.36 15.36 0 0 0 15.04-15.744 16.128 16.128 0 0 0-4.16-10.88l-5.76-6.208a18.56 18.56 0 0 0-7.616-5.056 19.2 19.2 0 0 1-12.096-12.992l-3.392-11.968a45.504 45.504 0 0 1-1.792-12.544v-64.896l6.976-59.968a48.64 48.64 0 0 1 2.112-9.6l22.016-67.072a17.92 17.92 0 0 1 2.88-5.44l0.64-0.896a16.064 16.064 0 0 1 28.48 6.4c0.384 1.408 0.576 2.944 0.576 4.48v55.872c0 6.4 1.28 12.672 3.648 18.56l18.688 45.44a48.512 48.512 0 0 1 2.368 7.36l17.088 72.704 6.592 31.36 0.896 8.064a36.416 36.416 0 0 0 35.52 33.024h20.8a15.36 15.36 0 0 0 14.976-15.68 16 16 0 0 0-4.224-10.944l-5.248-5.568a22.4 22.4 0 0 0-9.088-5.952 22.912 22.912 0 0 1-12.8-11.072l-7.552-14.336a48.32 48.32 0 0 1-4.48-12.288l-14.272-65.92-9.856-57.856a49.088 49.088 0 0 1-0.512-11.968l4.48-58.368a48.512 48.512 0 0 1 5.44-19.008l18.496-34.88a17.152 17.152 0 0 0 1.088-2.56 16.96 16.96 0 0 1 24.128-9.6 197.888 197.888 0 0 0 185.6-0.704 11.2 11.2 0 0 1 5.248-1.408c5.312 0 9.92 3.904 11.072 9.344l6.4 31.232a49.024 49.024 0 0 1 0.896 12.16l-4.544 95.872a49.088 49.088 0 0 0 0.64 10.88l4.672 26.368a49.024 49.024 0 0 1 0.768 8.448v73.536l-1.408 25.6a44.224 44.224 0 0 0 0.256 7.232l0.448 4.288a36.48 36.48 0 0 0 35.584 33.152h20.736a15.36 15.36 0 0 0 15.04-15.68 16.128 16.128 0 0 0-4.224-10.944l-5.76-6.208a19.008 19.008 0 0 0-7.68-5.056 19.52 19.52 0 0 1-12.224-12.864l-3.968-13.12a48.768 48.768 0 0 1-2.176-14.208v-66.048c0-2.56 0.192-5.056 0.64-7.552l4.736-30.976 0.512-20.096a49.024 49.024 0 0 1 0.896-8.192l23.872-122.112a14.272 14.272 0 0 0 0.256-2.688v-5.76a5.952 5.952 0 0 1 11.84-0.64l14.72 152.32a48.768 48.768 0 0 0 2.176 10.624l8.64 25.984c1.024 3.2 1.792 6.4 2.176 9.792l8.32 72.512-0.448 29.824 0.896 8a36.352 36.352 0 0 0 35.456 33.088h20.8a15.36 15.36 0 0 0 14.976-15.68 16 16 0 0 0-4.288-10.944l-5.952-6.4a18.368 18.368 0 0 0-7.36-4.8 18.944 18.944 0 0 1-11.904-13.056l-4.352-16.256a48.832 48.832 0 0 1-1.408-7.168l-8.064-69.952a49.152 49.152 0 0 1-0.256-7.872l1.088-23.552a49.024 49.024 0 0 0-1.088-12.736l-2.752-12.48a49.088 49.088 0 0 1-1.024-13.632l7.68-119.872v-2.816c0-25.408 19.648-46.016 43.968-46.016a138.816 138.816 0 0 0 89.728-33.92c25.472-21.888 43.264-52.288 50.56-86.336l18.688-79.488a3.712 3.712 0 0 1 3.584-2.88l0.64-0.064 79.808-16.256 26.56-2.816a12.096 12.096 0 0 0 8.32-4.736 27.264 27.264 0 0 0 4.544-23.488l-6.144-23.68v-0.256a0.896 0.896 0 0 0-0.448-0.768l-18.24-11.52a37.696 37.696 0 0 0-11.072-4.736l-15.232-3.776a216.512 216.512 0 0 0-39.68-5.76 48.128 48.128 0 0 1-20.096-5.248l-13.248-6.976a35.84 35.84 0 0 0-15.424-4.416 104.32 104.32 0 0 0-18.432 1.088 10.176 10.176 0 0 1-7.424-1.728 9.792 9.792 0 0 0-2.752-1.408l-1.728-0.576a41.024 41.024 0 0 0-18.368 0h-0.256a1.088 1.088 0 0 0-0.896 0.576l-1.664 2.56a7.296 7.296 0 0 0-0.832 5.888l0.448 1.536a11.648 11.648 0 0 1-1.088 8.768 97.728 97.728 0 0 0-5.76 12.352l-44.8 127.488a70.976 70.976 0 0 1-11.712 20.48 32.192 32.192 0 0 1-25.536 10.432h-6.016a43.328 43.328 0 0 1-21.824-5.952l-27.52-16a47.744 47.744 0 0 1-10.88-8.832 424.256 424.256 0 0 0-75.52-64.448 41.472 41.472 0 0 0-14.08-5.952l-44.16-9.728a52.992 52.992 0 0 1-28.8-18.944 151.616 151.616 0 0 0-52.48-40.96 141.76 141.76 0 0 0-81.536-11.968c-27.648 4.16-53.76 16.512-75.2 35.648a160.64 160.64 0 0 0-41.728 59.264 55.168 55.168 0 0 1-15.552 22.144l-65.472 53.568a46.016 46.016 0 0 0-8.256 8.768l-2.56 3.52a45.824 45.824 0 0 0-6.848 14.208 581.888 581.888 0 0 0-20.032 205.248l-0.512 13.184a48.96 48.96 0 0 1-1.28 9.472l-13.12 54.4z" fill="#13227a" p-id="2923"></path></svg>