<?xml version="1.0" standalone="no"?><!DOCTYPE svg PUBLIC "-//W3C//DTD SVG 1.1//EN" "http://www.w3.org/Graphics/SVG/1.1/DTD/svg11.dtd"><svg t="1689248820546" class="icon" viewBox="0 0 1462 1024" version="1.1" xmlns="http://www.w3.org/2000/svg" p-id="1499" xmlns:xlink="http://www.w3.org/1999/xlink" width="285.546875" height="200"><path d="M1260.163657 500.443429c-3.8912-34.084571 2.750171-30.866286 15.535543-65.272686l6.699886-19.748572c2.223543-7.226514 4.5056-15.477029 6.846171-25.219657 1.082514-4.417829 1.550629-8.747886 1.989486-13.077943 10.503314 7.489829 23.932343 17.525029 33.879771 26.975086 18.6368 17.759086 42.8032 2.603886 31.831772-0.760686-10.971429-3.393829-30.632229-22.996114-48.566857-52.6336-5.149257-8.513829-13.253486-15.330743-22.001372-21.035885-8.279771-25.248914-23.815314-44.938971-36.571428-52.896915-21.825829-13.780114-75.3664-96.021943-171.2128-142.453028-95.875657-46.431086-99.649829 30.251886-165.419886 24.576-65.770057-5.7344-72.177371-49.620114-144.735086-51.960686-72.557714-2.340571-132.827429 105.910857-191.634286 140.4928-42.452114 24.9856-56.202971 34.757486-93.7984 17.232457-54.330514-25.219657-53.833143-96.958171-53.833142-96.958171s-4.008229-37.858743-20.128915-51.580343l-16.1792-13.809371s3.306057-24.927086-3.4816-22.820572c-6.846171 2.135771-31.890286 4.417829-37.039543 7.7824-7.840914 5.237029-38.7072 0.438857-67.671771 16.647314-19.602286 10.912914-34.113829 11.029943-40.491886 12.551315-6.319543 1.404343-4.798171-8.162743-15.096685-7.314286-8.718629 0.731429-8.952686 10.210743-8.952686 10.210743s-47.9232 6.641371-67.613257 16.735086c-19.602286 10.064457-27.267657 25.951086-27.560229 36.629942-0.292571 6.729143-14.716343 32.065829-3.920457 42.5984 10.8544 10.4448 16.939886 5.061486 16.939886 5.061486s-7.957943 11.995429 4.447085 16.9984c12.405029 5.090743 23.669029-9.333029 30.134858-10.795886 6.436571-1.462857 33.616457 4.564114 51.082971 9.6256 5.7344 1.6384 14.277486 2.399086 23.113143 2.720915l25.512228-0.029257c7.109486-0.234057 12.170971-0.585143 12.170972-0.585143s10.532571 8.162743 18.695314 11.029943c12.0832 5.997714 0.468114 52.604343 2.8672 92.598857 2.925714 47.455086 11.527314 155.969829 131.130514 187.479771 119.661714 31.509943 178.000457-81.130057 186.309486-70.948571 23.9616 29.227886 53.745371 39.380114 51.931429 49.415314-3.803429 21.679543-54.593829 68.8128-95.729372 132.476343-27.940571 43.476114-5.646629 69.193143 34.230857 137.128228 33.440914 56.817371 39.438629 78.145829 32.329143 113.546972-7.080229 35.4304 26.302171 17.846857 43.300572 4.564114 16.969143-13.399771 30.017829-37.185829 11.000685-49.737143-16.003657-10.503314-56.378514-113.078857-72.352914-156.028343-8.192-22.1184 76.887771-100.615314 79.0528-97.192228 7.636114 11.6736 22.762057 42.452114 34.113829 89.790171 11.439543 47.367314 34.464914 116.794514 34.230857 143.857372-0.292571 27.0336-34.698971 95.875657-63.575772 117.613714-28.8768 21.738057 57.256229 22.469486 85.986743 17.6128 28.672-4.798171 6.9632-26.916571 5.441829-45.494857s3.949714-65.857829 13.019428-129.901714c8.981943-64.073143-19.017143-142.014171-28.847542-169.077029-9.888914-27.092114 2.223543-62.551771 19.309714-89.380571 17.144686-26.858057 27.150629-9.801143 126.858971-22.469486 99.766857-12.580571 152.283429-39.175314 170.978743-44.061257 18.578286-4.944457-10.620343 47.162514-12.756114 101.229714-1.989486 48.654629 68.344686 109.743543 62.844343 155.267657-5.5296 45.524114-126.390857 191.926857-140.346515 200.821029-38.853486 24.927086-44.734171 20.011886-57.782857 37.770971-12.053943 16.471771 71.036343 20.011886 94.471315 9.303772 25.365943-11.585829 0.175543-13.5168 12.112457-37.039543 12.053943-23.639771 159.5392-168.3456 162.172343-192.804572 3.657143-33.411657-24.341943-102.868114-22.557258-112.786285 18.2272 15.184457 39.3216 32.709486 44.470858 37.946514 43.476114 44.353829 63.780571 42.832457 61.878857 61.410743-3.364571 33.733486-36.688457 199.592229-45.758172 207.286857-15.945143 13.487543-29.140114 19.748571-46.928457 38.005028-16.969143 17.583543 35.079314 11.117714 53.891657 12.434286 28.672 1.930971 26.448457-9.6256 26.506972-21.474743 0.175543-11.615086 9.888914-58.046171 34.962285-129.696914 26.0096-73.991314 38.619429-94.237257 38.2976-127.882971-0.497371-54.652343-101.961143-130.8672-110.036114-200.4992" fill="#CFD5D9" p-id="1500"></path></svg>